<?xml version="1.0" encoding="UTF-8" standalone="no"?>
<!-- Created with Inkscape (http://www.inkscape.org/) -->

<svg
   width="32"
   height="32"
   viewBox="0 0 32 32"
   version="1.1"
   id="svg1"
   inkscape:version="1.3.2 (091e20e, 2023-11-25, custom)"
   sodipodi:docname="icon_apps.svg"
   xmlns:inkscape="http://www.inkscape.org/namespaces/inkscape"
   xmlns:sodipodi="http://sodipodi.sourceforge.net/DTD/sodipodi-0.dtd"
   xmlns="http://www.w3.org/2000/svg"
   xmlns:svg="http://www.w3.org/2000/svg">
  <sodipodi:namedview
     id="namedview1"
     pagecolor="#000000"
     bordercolor="#000000"
     borderopacity="0.25"
     inkscape:showpageshadow="2"
     inkscape:pageopacity="0.0"
     inkscape:pagecheckerboard="0"
     inkscape:deskcolor="#d1d1d1"
     inkscape:document-units="px"
     inkscape:zoom="6.993728"
     inkscape:cx="4.7900061"
     inkscape:cy="33.673028"
     inkscape:window-width="1600"
     inkscape:window-height="829"
     inkscape:window-x="-8"
     inkscape:window-y="-8"
     inkscape:window-maximized="1"
     inkscape:current-layer="layer1"
     showgrid="false" />
  <defs
     id="defs1" />
  <g
     inkscape:label="Layer 1"
     inkscape:groupmode="layer"
     id="layer1">
    <path
       style="opacity:0.821;fill:none;stroke:#ffffff;stroke-width:1.5;stroke-linejoin:round;stroke-dasharray:none"
       d="m 22.498485,17.180884 c 0.805224,0 1.498184,-0.0014 2.061274,0.0559 0.582824,0.05921 1.156312,0.191086 1.680878,0.541588 0.387132,0.258681 0.719431,0.590984 0.978109,0.978119 0.350499,0.524571 0.482379,1.098066 0.541582,1.680897 0.05601,0.549741 0.0559,1.223092 0.0559,2.003863 0,0.705375 0.01559,1.416069 -0.0559,2.118727 -0.0592,0.58283 -0.191083,1.156325 -0.541582,1.680896 -0.258678,0.387135 -0.590977,0.719438 -0.978109,0.97812 -0.524566,0.350501 -1.098054,0.482382 -1.680878,0.541587 -0.549736,0.05602 -1.22308,0.0559 -2.003842,0.0559 -0.705368,0 -1.416055,0.01561 -2.118705,-0.0559 -0.582824,-0.05921 -1.156313,-0.191086 -1.680878,-0.541587 -0.387132,-0.258682 -0.719431,-0.590985 -0.97811,-0.97812 -0.350498,-0.524571 -0.482378,-1.098066 -0.541582,-1.680896 -0.05731,-0.563096 -0.0559,-1.256063 -0.0559,-2.061295 0,-0.805233 -0.0014,-1.4982 0.0559,-2.061295 0.0592,-0.582831 0.191084,-1.156326 0.541582,-1.680897 0.258679,-0.387135 0.590978,-0.719438 0.97811,-0.978119 0.524565,-0.350502 1.098054,-0.482383 1.680878,-0.541588 0.563089,-0.05731 1.256049,-0.0559 2.061273,-0.0559 z"
       id="path1" />
    <path
       style="opacity:0.821;fill:none;stroke:#ffffff;stroke-width:1.5;stroke-linejoin:round;stroke-dasharray:none"
       d="m 9.4995688,17.180884 c 0.8052362,0 1.4981362,-0.0014 2.0612502,0.0559 0.582871,0.05921 1.156324,0.191086 1.680913,0.541588 0.387096,0.258681 0.719419,0.590984 0.978098,0.978119 0.350498,0.524571 0.482377,1.098066 0.541582,1.680897 0.05601,0.549741 0.0559,1.223092 0.0559,2.003863 0,0.705375 0.01559,1.416069 -0.0559,2.118727 -0.0592,0.58283 -0.191084,1.156325 -0.541582,1.680896 -0.258679,0.387135 -0.591002,0.719438 -0.978098,0.97812 -0.524589,0.350501 -1.098042,0.482382 -1.680913,0.541587 -0.549689,0.05602 -1.223033,0.0559 -2.0038542,0.0559 -0.705322,0 -1.415971,0.01561 -2.1186457,-0.0559 C 6.8554477,27.701371 6.2819946,27.56949 5.7574056,27.218988 5.3703096,26.960307 5.037951,26.628004 4.7792963,26.240869 4.4287863,25.716298 4.2969891,25.142803 4.2376904,24.559973 c -0.05729,-0.563096 -0.05586,-1.256063 -0.05586,-2.061295 0,-0.805233 -0.00143,-1.4982 0.05586,-2.061295 0.059299,-0.582831 0.1910959,-1.156326 0.5416059,-1.680897 0.2586547,-0.387135 0.5910133,-0.719438 0.9781093,-0.97812 0.524589,-0.350501 1.0980421,-0.482382 1.6809135,-0.541587 0.5631247,-0.05732 1.2560027,-0.0559 2.0612497,-0.0559 z"
       id="path2" />
    <path
       style="opacity:0.821;fill:none;stroke:#ffffff;stroke-width:1.5;stroke-linejoin:round;stroke-dasharray:none"
       d="m 9.4995688,4.1818303 c 0.8052362,0 1.4981362,-0.00143 2.0612502,0.05586 0.582871,0.059299 1.156324,0.1910979 1.680913,0.5416115 0.387096,0.2586576 0.719419,0.5910197 0.978098,0.9781196 0.350498,0.5245946 0.482377,1.0980536 0.541582,1.6809312 0.05601,0.5497063 0.0559,1.2230573 0.0559,2.0038754 0,0.705328 0.01559,1.415987 -0.0559,2.118669 -0.0592,0.582877 -0.191084,1.156336 -0.541582,1.680931 -0.258679,0.387099 -0.591002,0.719426 -0.978098,0.978108 -0.524589,0.350501 -1.098042,0.482382 -1.680913,0.541587 -0.549689,0.05602 -1.223033,0.0559 -2.0038542,0.0559 -0.705322,0 -1.415971,0.01561 -2.1186457,-0.0559 C 6.8554477,14.702323 6.2819946,14.570437 5.7574056,14.219936 5.3703096,13.961254 5.037951,13.628927 4.7792963,13.241828 4.4287863,12.717233 4.2969891,12.143774 4.2376904,11.560897 c -0.05729,-0.563119 -0.05586,-1.256016 -0.05586,-2.061272 0,-0.8052565 -0.00143,-1.4981415 0.05586,-2.0612723 C 4.2969891,6.8554754 4.4287863,6.2820164 4.7792963,5.7574218 5.037951,5.3703219 5.3703096,5.0379598 5.7574056,4.7793022 6.2819946,4.4287887 6.8554477,4.2969901 7.4383191,4.2376908 8.0014438,4.1803998 8.6943218,4.1818308 9.4995688,4.1818303 Z"
       id="path3" />
    <path
       style="opacity:0.821;fill:none;stroke:#ffffff;stroke-width:1.5;stroke-linejoin:round;stroke-dasharray:none"
       d="m 23.680205,5.3635624 c 0,-0.652647 -0.529056,-1.1817321 -1.18172,-1.1817321 -0.652663,0 -1.181719,0.5290851 -1.181719,1.1817321 v 2.9543302 h -2.9543 c -0.652664,0 -1.18172,0.5290854 -1.18172,1.1817324 0,0.652647 0.529056,1.181732 1.18172,1.181732 h 2.9543 v 2.95433 c 0,0.652671 0.529056,1.181732 1.181719,1.181732 0.652664,0 1.18172,-0.529061 1.18172,-1.181732 v -2.95433 h 2.9543 c 0.652663,0 1.181719,-0.529085 1.181719,-1.181732 0,-0.652647 -0.529056,-1.1817324 -1.181719,-1.1817324 h -2.9543 z"
       id="path4" />
  </g>
</svg>
