<?xml version="1.0" encoding="UTF-8" standalone="no"?>
<!-- Created with Inkscape (http://www.inkscape.org/) -->

<svg
   width="32"
   height="32"
   viewBox="0 0 32 32"
   version="1.1"
   id="svg1"
   sodipodi:docname="icon_social_telegram.svg"
   inkscape:version="1.3.2 (091e20e, 2023-11-25, custom)"
   xmlns:inkscape="http://www.inkscape.org/namespaces/inkscape"
   xmlns:sodipodi="http://sodipodi.sourceforge.net/DTD/sodipodi-0.dtd"
   xmlns="http://www.w3.org/2000/svg"
   xmlns:svg="http://www.w3.org/2000/svg">
  <sodipodi:namedview
     id="namedview1"
     pagecolor="#ffffff"
     bordercolor="#000000"
     borderopacity="0.25"
     inkscape:showpageshadow="2"
     inkscape:pageopacity="0.0"
     inkscape:pagecheckerboard="0"
     inkscape:deskcolor="#d1d1d1"
     inkscape:document-units="px"
     inkscape:zoom="15.90625"
     inkscape:cx="16"
     inkscape:cy="16.502947"
     inkscape:window-width="1366"
     inkscape:window-height="705"
     inkscape:window-x="-8"
     inkscape:window-y="-8"
     inkscape:window-maximized="1"
     inkscape:current-layer="layer1" />
  <defs
     id="defs1" />
  <g
     inkscape:label="Layer 1"
     inkscape:groupmode="layer"
     id="layer1">
    <path
       style="display:inline;fill:#000000;stroke:none;stroke-width:0.417857;stroke-linecap:round;stroke-linejoin:round;stroke-opacity:0.595455"
       d="M 16,4.3 C 9.5382571,4.3 4.3,9.5382571 4.3,16 4.3,22.461744 9.5382571,27.7 16,27.7 22.461743,27.7 27.7,22.461744 27.7,16 27.7,9.5382571 22.461743,4.3 16,4.3 Z m 5.42295,7.956835 c -0.176336,1.850272 -0.937671,6.33973 -1.325443,8.411465 -0.1638,0.876665 -0.487221,1.170835 -0.799778,1.19925 -0.679436,0.06268 -1.195072,-0.448779 -1.853615,-0.880007 -1.0296,-0.675258 -1.611257,-1.095622 -2.610771,-1.754164 -1.154957,-0.761336 -0.406157,-1.180029 0.252386,-1.863644 0.172157,-0.178842 3.165685,-2.9016 3.224185,-3.14897 0.0076,-0.03092 0.01421,-0.14625 -0.05432,-0.207259 -0.06853,-0.06101 -0.16965,-0.04011 -0.242357,-0.0234 -0.103628,0.0234 -1.748314,1.110665 -4.934893,3.261794 -0.467164,0.320915 -0.890035,0.477193 -1.268614,0.468835 -0.417859,-0.0092 -1.22098,-0.236506 -1.8185157,-0.430391 C 9.2582929,17.052165 8.6758,16.925971 8.7267786,16.521485 c 0.026743,-0.2106 0.3167357,-0.426214 0.8708143,-0.646006 3.4105501,-1.4859 5.6853641,-2.465358 6.8227711,-2.939208 3.249257,-1.35135 3.924515,-1.586186 4.3641,-1.593706 0.09694,-0.0017 0.313393,0.02256 0.453793,0.13622 0.118672,0.09611 0.151264,0.225644 0.166307,0.316736 0.01588,0.09109 0.0351,0.29835 0.01922,0.460479 z M 16,4.3 C 9.5382571,4.3 4.3,9.5382571 4.3,16 4.3,22.461744 9.5382571,27.7 16,27.7 22.461743,27.7 27.7,22.461744 27.7,16 27.7,9.5382571 22.461743,4.3 16,4.3 Z m 5.42295,7.956835 c -0.176336,1.850272 -0.937671,6.33973 -1.325443,8.411465 -0.1638,0.876665 -0.487221,1.170835 -0.799778,1.19925 -0.679436,0.06268 -1.195072,-0.448779 -1.853615,-0.880007 -1.0296,-0.675258 -1.611257,-1.095622 -2.610771,-1.754164 -1.154957,-0.761336 -0.406157,-1.180029 0.252386,-1.863644 0.172157,-0.178842 3.165685,-2.9016 3.224185,-3.14897 0.0076,-0.03092 0.01421,-0.14625 -0.05432,-0.207259 -0.06853,-0.06101 -0.16965,-0.04011 -0.242357,-0.0234 -0.103628,0.0234 -1.748314,1.110665 -4.934893,3.261794 -0.467164,0.320915 -0.890035,0.477193 -1.268614,0.468835 -0.417859,-0.0092 -1.22098,-0.236506 -1.8185157,-0.430391 C 9.2582929,17.052165 8.6758,16.925971 8.7267786,16.521485 c 0.026743,-0.2106 0.3167357,-0.426214 0.8708143,-0.646006 3.4105501,-1.4859 5.6853641,-2.465358 6.8227711,-2.939208 3.249257,-1.35135 3.924515,-1.586186 4.3641,-1.593706 0.09694,-0.0017 0.313393,0.02256 0.453793,0.13622 0.118672,0.09611 0.151264,0.225644 0.166307,0.316736 0.01588,0.09109 0.0351,0.29835 0.01922,0.460479 z"
       id="path1" />
  </g>
</svg>
