<?xml version="1.0" encoding="UTF-8" standalone="no"?>
<svg
   width="32"
   height="32"
   version="1.1"
   id="svg1"
   sodipodi:docname="icon_social_github.svg"
   inkscape:version="1.3.2 (091e20e, 2023-11-25, custom)"
   xmlns:inkscape="http://www.inkscape.org/namespaces/inkscape"
   xmlns:sodipodi="http://sodipodi.sourceforge.net/DTD/sodipodi-0.dtd"
   xmlns="http://www.w3.org/2000/svg"
   xmlns:svg="http://www.w3.org/2000/svg">
  <defs
     id="defs1" />
  <sodipodi:namedview
     id="namedview1"
     pagecolor="#ffffff"
     bordercolor="#000000"
     borderopacity="0.25"
     inkscape:showpageshadow="2"
     inkscape:pageopacity="0.0"
     inkscape:pagecheckerboard="0"
     inkscape:deskcolor="#d1d1d1"
     showgrid="false"
     inkscape:zoom="9.3249707"
     inkscape:cx="8.0965402"
     inkscape:cy="15.281549"
     inkscape:window-width="1600"
     inkscape:window-height="829"
     inkscape:window-x="-8"
     inkscape:window-y="-8"
     inkscape:window-maximized="1"
     inkscape:current-layer="svg1" />
  <path
     fill-rule="evenodd"
     clip-rule="evenodd"
     d="M 16.009926,4 C 9.3687472,4 4,9.4999769 4,16.304198 c 0,5.438977 3.4399414,10.042958 8.212052,11.672451 0.596637,0.1225 0.815183,-0.264749 0.815183,-0.590497 0,-0.28525 -0.01966,-1.262995 -0.01966,-2.281741 C 9.6666994,25.837908 8.9709919,23.637667 8.9709919,23.637667 8.4340927,22.211673 7.638577,21.845175 7.638577,21.845175 c -1.0934652,-0.753747 0.07965,-0.753747 0.07965,-0.753747 1.2129401,0.0815 1.8494018,1.262995 1.8494018,1.262995 1.0735532,1.873991 2.8034792,1.344494 3.4994322,1.018495 0.09932,-0.794497 0.417671,-1.344494 0.755692,-1.649993 -2.664585,-0.285248 -5.4680643,-1.344494 -5.4680643,-6.070724 0,-1.344494 0.476916,-2.44449 1.2326067,-3.299987 -0.1192291,-0.305497 -0.5368995,-1.568742 0.1194747,-3.2594854 0,0 1.0140609,-0.3259986 3.3005539,1.2629944 a 11.546777,11.742452 0 0 1 3.002604,-0.4074981 c 1.014063,0 2.04779,0.1427491 3.00236,0.4074981 2.286738,-1.588993 3.3008,-1.2629944 3.3008,-1.2629944 0.656373,1.6907434 0.238458,2.9539884 0.119228,3.2594854 0.775604,0.855497 1.232853,1.955493 1.232853,3.299987 0,4.72623 -2.80348,5.764976 -5.487977,6.070724 0.437583,0.386999 0.815183,1.120245 0.815183,2.281491 0,1.649993 -0.01966,2.974237 -0.01966,3.381486 0,0.325998 0.218792,0.713247 0.815183,0.590998 4.772108,-1.629994 8.212048,-6.233725 8.212048,-11.672702 C 28.019606,9.4999769 22.631192,4 16.009926,4 Z"
     fill="#24292f"
     id="path1"
     style="display:inline;stroke-width:0.247907;fill-rule:nonzero"
     inkscape:label="path1" />
</svg>
