<?xml version="1.0" encoding="UTF-8" standalone="no"?>
<!-- Created with Inkscape (http://www.inkscape.org/) -->

<svg
   width="32"
   height="32"
   viewBox="0 0 32 32"
   version="1.1"
   id="svg1"
   inkscape:version="1.3.2 (091e20e, 2023-11-25, custom)"
   sodipodi:docname="icon_social_discord.svg"
   xmlns:inkscape="http://www.inkscape.org/namespaces/inkscape"
   xmlns:sodipodi="http://sodipodi.sourceforge.net/DTD/sodipodi-0.dtd"
   xmlns="http://www.w3.org/2000/svg"
   xmlns:svg="http://www.w3.org/2000/svg">
  <sodipodi:namedview
     id="namedview1"
     pagecolor="#ffffff"
     bordercolor="#000000"
     borderopacity="0.25"
     inkscape:showpageshadow="2"
     inkscape:pageopacity="0.0"
     inkscape:pagecheckerboard="0"
     inkscape:deskcolor="#d1d1d1"
     inkscape:document-units="px"
     inkscape:zoom="15.90625"
     inkscape:cx="16.031434"
     inkscape:cy="15.937132"
     inkscape:window-width="1366"
     inkscape:window-height="705"
     inkscape:window-x="-8"
     inkscape:window-y="-8"
     inkscape:window-maximized="1"
     inkscape:current-layer="layer1" />
  <defs
     id="defs1" />
  <g
     inkscape:label="Layer 1"
     inkscape:groupmode="layer"
     id="layer1">
    <path
       style="display:inline;fill:#000000;stroke:none;stroke-width:0.392892;stroke-linecap:round;stroke-linejoin:round;stroke-opacity:0.595455"
       d="M 24.12118,8.5073229 C 22.5839,7.7932445 20.960825,7.2857897 19.294073,7 19.066328,7.4140388 18.859642,7.8399525 18.675574,8.2761578 16.899629,8.004618 15.094046,8.004618 13.318102,8.2761578 13.134033,7.8399525 12.928127,7.4140388 12.699602,7 11.03129,7.2889563 9.4074352,7.7964112 7.8685954,8.5112812 4.813534,13.098958 3.9852278,17.572635 4.3993809,21.982979 v 0 C 6.1885845,23.324845 8.1907144,24.345296 10.319976,25 c 0.479669,-0.654704 0.903181,-1.34899 1.268198,-2.075736 -0.692595,-0.262831 -1.360232,-0.586621 -1.9966708,-0.96741 0.1676889,-0.123499 0.331479,-0.250165 0.4898088,-0.373664 3.748437,1.789155 8.088074,1.789155 11.837291,0 0.159889,0.133 0.323678,0.259665 0.489808,0.373664 -0.637219,0.382373 -1.307195,0.706162 -2.000571,0.969785 0.364237,0.726745 0.78853,1.420241 1.268198,2.073361 2.130822,-0.652329 4.134512,-1.671988 5.924496,-3.014645 v 0 C 28.086442,16.870431 26.770667,12.437921 24.12196,8.5073229 Z M 12.113079,19.270748 c -1.153544,0 -2.107423,-1.063201 -2.107423,-2.370233 0,-1.307033 0.920341,-2.379734 2.103523,-2.379734 1.183185,0 2.129263,1.07191 2.108984,2.379734 -0.02028,1.307824 -0.929699,2.370233 -2.105084,2.370233 z m 7.773756,0 c -1.155885,0 -2.105083,-1.063201 -2.105083,-2.370233 0,-1.307033 0.92034,-2.379734 2.105083,-2.379734 1.184742,0 2.123802,1.07191 2.103524,2.379734 -0.02028,1.307824 -0.927361,2.370233 -2.103524,2.370233 z M 24.12118,8.5073229 C 22.5839,7.7932445 20.960825,7.2857897 19.294073,7 19.066328,7.4140388 18.859642,7.8399525 18.675574,8.2761578 16.899629,8.004618 15.094046,8.004618 13.318102,8.2761578 13.134033,7.8399525 12.928127,7.4140388 12.699602,7 11.03129,7.2889563 9.4074352,7.7964112 7.8685954,8.5112812 4.813534,13.098958 3.9852278,17.572635 4.3993809,21.982979 v 0 C 6.1885845,23.324845 8.1907144,24.345296 10.319976,25 c 0.479669,-0.654704 0.903181,-1.34899 1.268198,-2.075736 -0.692595,-0.262831 -1.360232,-0.586621 -1.9966708,-0.96741 0.1676889,-0.123499 0.331479,-0.250165 0.4898088,-0.373664 3.748437,1.789155 8.088074,1.789155 11.837291,0 0.159889,0.133 0.323678,0.259665 0.489808,0.373664 -0.637219,0.382373 -1.307195,0.706162 -2.000571,0.969785 0.364237,0.726745 0.78853,1.420241 1.268198,2.073361 2.130822,-0.652329 4.134512,-1.671988 5.924496,-3.014645 v 0 C 28.086442,16.870431 26.770667,12.437921 24.12196,8.5073229 Z M 12.113079,19.270748 c -1.153544,0 -2.107423,-1.063201 -2.107423,-2.370233 0,-1.307033 0.920341,-2.379734 2.103523,-2.379734 1.183185,0 2.129263,1.07191 2.108984,2.379734 -0.02028,1.307824 -0.929699,2.370233 -2.105084,2.370233 z m 7.773756,0 c -1.155885,0 -2.105083,-1.063201 -2.105083,-2.370233 0,-1.307033 0.92034,-2.379734 2.105083,-2.379734 1.184742,0 2.123802,1.07191 2.103524,2.379734 -0.02028,1.307824 -0.927361,2.370233 -2.103524,2.370233 z"
       id="path1" />
  </g>
</svg>
