<?xml version="1.0" encoding="UTF-8" standalone="no"?>
<!-- Created with Inkscape (http://www.inkscape.org/) -->

<svg
   width="32"
   height="32"
   viewBox="0 0 32 32"
   version="1.1"
   id="svg1"
   sodipodi:docname="icon_social_google.svg"
   inkscape:version="1.3.2 (091e20e, 2023-11-25, custom)"
   xmlns:inkscape="http://www.inkscape.org/namespaces/inkscape"
   xmlns:sodipodi="http://sodipodi.sourceforge.net/DTD/sodipodi-0.dtd"
   xmlns="http://www.w3.org/2000/svg"
   xmlns:svg="http://www.w3.org/2000/svg">
  <sodipodi:namedview
     id="namedview1"
     pagecolor="#ffffff"
     bordercolor="#000000"
     borderopacity="0.25"
     inkscape:showpageshadow="2"
     inkscape:pageopacity="0.0"
     inkscape:pagecheckerboard="0"
     inkscape:deskcolor="#d1d1d1"
     inkscape:document-units="px"
     inkscape:zoom="15.90625"
     inkscape:cx="16"
     inkscape:cy="16.502947"
     inkscape:window-width="1366"
     inkscape:window-height="705"
     inkscape:window-x="-8"
     inkscape:window-y="-8"
     inkscape:window-maximized="1"
     inkscape:current-layer="layer1" />
  <defs
     id="defs1" />
  <g
     inkscape:label="Layer 1"
     inkscape:groupmode="layer"
     id="layer1">
    <path
       style="display:inline;fill:#000000;stroke:none;stroke-width:0.379869;stroke-linecap:round;stroke-linejoin:round;stroke-opacity:0.595455"
       d="m 26.529233,16.238412 c 0,-0.746825 -0.0683,-1.464318 -0.195704,-2.153983 H 16.214507 v 4.077828 h 5.782846 c -0.254031,1.311643 -1.016123,2.421727 -2.158879,3.168551 v 2.651115 h 3.48736 C 25.357314,22.143817 26.53,19.444568 26.53,16.238412 Z M 16.214507,26.528496 c 2.901017,0 5.333113,-0.937856 7.110561,-2.545822 L 19.837707,21.33156 c -0.957028,0.631755 -2.178065,1.014568 -3.623969,1.014568 -2.793571,0 -5.167339,-1.847131 -6.016923,-4.335793 L 8.1116137,19.582201 6.6219645,20.729136 C 8.3902034,24.165432 12.013404,26.53 16.213738,26.53 Z M 10.197583,17.999805 C 9.9826927,17.36805 9.856061,16.697939 9.856061,15.999248 c 0,-0.698691 0.1266316,-1.368802 0.341522,-2.000557 V 11.279889 H 6.6227321 C 5.8898031,12.696825 5.47,14.295014 5.47,15.999248 c 0,1.704234 0.4198031,3.302423 1.1527321,4.719359 h 2.5571925 c 0,0 1.0184254,-2.718802 1.0184254,-2.718802 z m 6.016924,-8.336908 c 1.582512,0 2.989274,0.536239 4.112076,1.56961 L 23.403349,8.2173817 C 21.537642,6.5138997 19.115524,5.47 16.214507,5.47 c -4.200335,0 -7.8243036,2.3645682 -9.5917749,5.809889 l 3.5748509,2.718802 c 0.849583,-2.488663 3.223352,-4.335794 6.016924,-4.335794 z m 10.314726,6.575515 c 0,-0.746825 -0.0683,-1.464318 -0.195704,-2.153983 H 16.214507 v 4.077828 h 5.782846 c -0.254031,1.311643 -1.016123,2.421727 -2.158879,3.168551 v 2.651115 h 3.48736 C 25.357314,22.143817 26.53,19.444568 26.53,16.238412 Z M 16.214507,26.528496 c 2.901017,0 5.333113,-0.937856 7.110561,-2.545822 L 19.837707,21.33156 c -0.957028,0.631755 -2.178065,1.014568 -3.623969,1.014568 -2.793571,0 -5.167339,-1.847131 -6.016923,-4.335793 L 8.1116137,19.582201 6.6219645,20.729136 C 8.3902034,24.165432 12.013404,26.53 16.213738,26.53 Z M 10.197583,17.999805 C 9.9826927,17.36805 9.856061,16.697939 9.856061,15.999248 c 0,-0.698691 0.1266316,-1.368802 0.341522,-2.000557 V 11.279889 H 6.6227321 C 5.8898031,12.696825 5.47,14.295014 5.47,15.999248 c 0,1.704234 0.4198031,3.302423 1.1527321,4.719359 h 2.5571925 c 0,0 1.0184254,-2.718802 1.0184254,-2.718802 z m 6.016924,-8.336908 c 1.582512,0 2.989274,0.536239 4.112076,1.56961 L 23.403349,8.2173817 C 21.537642,6.5138997 19.115524,5.47 16.214507,5.47 c -4.200335,0 -7.8243036,2.3645682 -9.5917749,5.809889 l 3.5748509,2.718802 c 0.849583,-2.488663 3.223352,-4.335794 6.016924,-4.335794 z m 10.314726,6.575515 c 0,-0.746825 -0.0683,-1.464318 -0.195704,-2.153983 H 16.214507 v 4.077828 h 5.782846 c -0.254031,1.311643 -1.016123,2.421727 -2.158879,3.168551 v 2.651115 h 3.48736 C 25.357314,22.143817 26.53,19.444568 26.53,16.238412 Z M 16.214507,26.528496 c 2.901017,0 5.333113,-0.937856 7.110561,-2.545822 L 19.837707,21.33156 c -0.957028,0.631755 -2.178065,1.014568 -3.623969,1.014568 -2.793571,0 -5.167339,-1.847131 -6.016923,-4.335793 L 8.1116137,19.582201 6.6219645,20.729136 C 8.3902034,24.165432 12.013404,26.53 16.213738,26.53 Z M 10.197583,17.999805 C 9.9826927,17.36805 9.856061,16.697939 9.856061,15.999248 c 0,-0.698691 0.1266316,-1.368802 0.341522,-2.000557 V 11.279889 H 6.6227321 C 5.8898031,12.696825 5.47,14.295014 5.47,15.999248 c 0,1.704234 0.4198031,3.302423 1.1527321,4.719359 h 2.5571925 c 0,0 1.0184254,-2.718802 1.0184254,-2.718802 z m 6.016924,-8.336908 c 1.582512,0 2.989274,0.536239 4.112076,1.56961 L 23.403349,8.2173817 C 21.537642,6.5138997 19.115524,5.47 16.214507,5.47 c -4.200335,0 -7.8243036,2.3645682 -9.5917749,5.809889 l 3.5748509,2.718802 c 0.849583,-2.488663 3.223352,-4.335794 6.016924,-4.335794 z"
       id="path1" />
  </g>
</svg>
