<?xml version="1.0" encoding="UTF-8" standalone="no"?>
<!-- Created with Inkscape (http://www.inkscape.org/) -->

<svg
   width="32"
   height="32"
   viewBox="0 0 32 32"
   version="1.1"
   id="svg1"
   sodipodi:docname="icon_social_youtube.svg"
   inkscape:version="1.3.2 (091e20e, 2023-11-25, custom)"
   xmlns:inkscape="http://www.inkscape.org/namespaces/inkscape"
   xmlns:sodipodi="http://sodipodi.sourceforge.net/DTD/sodipodi-0.dtd"
   xmlns="http://www.w3.org/2000/svg"
   xmlns:svg="http://www.w3.org/2000/svg">
  <sodipodi:namedview
     id="namedview1"
     pagecolor="#ffffff"
     bordercolor="#000000"
     borderopacity="0.25"
     inkscape:showpageshadow="2"
     inkscape:pageopacity="0.0"
     inkscape:pagecheckerboard="0"
     inkscape:deskcolor="#d1d1d1"
     inkscape:document-units="px"
     inkscape:zoom="15.90625"
     inkscape:cx="16.031434"
     inkscape:cy="16.502947"
     inkscape:window-width="1366"
     inkscape:window-height="705"
     inkscape:window-x="-8"
     inkscape:window-y="-8"
     inkscape:window-maximized="1"
     inkscape:current-layer="layer1" />
  <defs
     id="defs1" />
  <g
     inkscape:label="Layer 1"
     inkscape:groupmode="layer"
     id="layer1">
    <path
       style="display:inline;fill:#000000;stroke:none;stroke-width:0.396466;stroke-linecap:round;stroke-linejoin:round;stroke-opacity:0.595455"
       d="M 28.073163,9.8111776 C 27.783363,8.7045908 26.929713,7.8335329 25.845325,7.5373254 23.879725,7 16,7 16,7 16,7 8.1194875,7 6.154675,7.5373254 5.0702875,7.8327345 4.2166375,8.7045908 3.9268375,9.8111776 3.4,11.816767 3.4,16.0004 3.4,16.0004 c 0,0 0,4.18443 0.5268375,6.18922 0.2898,1.106587 1.14345,1.977645 2.2278375,2.273055 C 8.120275,25 16,25 16,25 c 0,0 7.880513,0 9.845325,-0.537325 1.084388,-0.29541 1.938038,-1.167266 2.227838,-2.273055 C 28.6,20.184032 28.6,16.0004 28.6,16.0004 c 0,0 0,-4.183633 -0.526837,-6.1892224 z m -14.65065,9.9880244 v -7.597605 l 6.58665,3.798803 z M 28.073163,9.8111776 C 27.783363,8.7045908 26.929713,7.8335329 25.845325,7.5373254 23.879725,7 16,7 16,7 16,7 8.1194875,7 6.154675,7.5373254 5.0702875,7.8327345 4.2166375,8.7045908 3.9268375,9.8111776 3.4,11.816767 3.4,16.0004 3.4,16.0004 c 0,0 0,4.18443 0.5268375,6.18922 0.2898,1.106587 1.14345,1.977645 2.2278375,2.273055 C 8.120275,25 16,25 16,25 c 0,0 7.880513,0 9.845325,-0.537325 1.084388,-0.29541 1.938038,-1.167266 2.227838,-2.273055 C 28.6,20.184032 28.6,16.0004 28.6,16.0004 c 0,0 0,-4.183633 -0.526837,-6.1892224 z m -14.65065,9.9880244 v -7.597605 l 6.58665,3.798803 z M 28.073163,9.8111776 C 27.783363,8.7045908 26.929713,7.8335329 25.845325,7.5373254 23.879725,7 16,7 16,7 16,7 8.1194875,7 6.154675,7.5373254 5.0702875,7.8327345 4.2166375,8.7045908 3.9268375,9.8111776 3.4,11.816767 3.4,16.0004 3.4,16.0004 c 0,0 0,4.18443 0.5268375,6.18922 0.2898,1.106587 1.14345,1.977645 2.2278375,2.273055 C 8.120275,25 16,25 16,25 c 0,0 7.880513,0 9.845325,-0.537325 1.084388,-0.29541 1.938038,-1.167266 2.227838,-2.273055 C 28.6,20.184032 28.6,16.0004 28.6,16.0004 c 0,0 0,-4.183633 -0.526837,-6.1892224 z m -14.65065,9.9880244 v -7.597605 l 6.58665,3.798803 z"
       id="path1" />
  </g>
</svg>
